STARTFONT 2.1
FONT -Adobe-ITC Avant Garde Gothic-Demi-R-Normal--24-240-75-75-P-140-ISO8859-1
SIZE 24 75 75
FONTBOUNDINGBOX 33 29 -2 -5

STARTPROPERTIES 30
FOUNDRY "Adobe"
FAMILY_NAME "ITC Avant Garde Gothic"
WEIGHT_NAME "Demi"
SLANT "R"
SETWIDTH_NAME "Normal"
ADD_STYLE_NAME ""
PIXEL_SIZE 24
POINT_SIZE 240
RESOLUTION_X 75
RESOLUTION_Y 75
SPACING "P"
AVERAGE_WIDTH 140
CHARSET_REGISTRY "ISO8859"
CHARSET_ENCODING "1"
CAP_HEIGHT 19
X_HEIGHT 14
FACE_NAME "ITC Avant Garde Gothic Demi"
COPYRIGHT "Copyright (c) 1984, 1987 Adobe Systems Incorporated. All Rights Reserved. Copyright (c) 1988, 1991 Digital Equipment Corporation. All Rights Reserved."
NOTICE "ITC Avant Garde Gothic is a registered trademark of International Typeface Corporation."
_DEC_DEVICE_FONTNAMES "PS=AvantGarde-Demi"
_DEC_PRODUCTINFO "DECwindows Fonts V2.2, 07-Nov-1991"
RELATIVE_SETWIDTH 50
RELATIVE_WEIGHT 60
CHARSET_COLLECTIONS "ASCII ISO8859-1 ADOBE-STANDARD"
FULL_NAME "ITC Avant Garde Gothic Demi"
WEIGHT 10
QUAD_WIDTH 16
DEFAULT_CHAR 32
FONT_DESCENT 5
FONT_ASCENT 22
ENDPROPERTIES

CHARS 191

STARTCHAR space
ENCODING 32
SWIDTH 280 0
DWIDTH 7 0
BBX 1 1 0 0
BITMAP
00
ENDCHAR

STARTCHAR exclam
ENCODING 33
SWIDTH 280 0
DWIDTH 7 0
BBX 3 19 1 0
BITMAP
E0
E0
E0
E0
E0
E0
E0
E0
E0
E0
E0
E0
E0
E0
00
00
E0
E0
E0
ENDCHAR

STARTCHAR quotedbl
ENCODING 34
SWIDTH 360 0
DWIDTH 9 0
BBX 6 5 1 14
BITMAP
CC
CC
CC
CC
CC
ENDCHAR

STARTCHAR numbersign
ENCODING 35
SWIDTH 600 0
DWIDTH 16 0
BBX 14 17 1 0
BITMAP
0630
0630
0630
0630
0630
7FFC
7FFC
0C60
0C60
0C60
FFF8
FFF8
18C0
18C0
18C0
18C0
18C0
ENDCHAR

STARTCHAR dollar
ENCODING 36
SWIDTH 560 0
DWIDTH 14 0
BBX 11 21 1 -2
BITMAP
0E00
0E00
3F80
7FC0
FFE0
F1E0
E0E0
F000
7C00
3F00
1F80
07C0
01E0
00E0
E0E0
F1E0
FFE0
7FC0
3F80
0E00
0E00
ENDCHAR

STARTCHAR percent
ENCODING 37
SWIDTH 860 0
DWIDTH 22 0
BBX 20 20 1 -1
BITMAP
3E0600
7F0600
E38C00
C18C00
C19800
C19800
E3B000
7F3000
3E6000
006000
00C7C0
00CFE0
019C70
019830
031830
031830
061C70
060FE0
0C07C0
0C0000
ENDCHAR

STARTCHAR ampersand
ENCODING 38
SWIDTH 680 0
DWIDTH 17 0
BBX 15 19 0 0
BITMAP
0700
1FC0
3FE0
38E0
38E0
3DE0
1FC0
0F80
1F00
3F8E
7BCE
F1FC
E0FC
E078
E078
70FC
7FFE
3FCE
0F06
ENDCHAR

STARTCHAR quoteright
ENCODING 39
SWIDTH 280 0
DWIDTH 7 0
BBX 3 6 2 13
BITMAP
E0
E0
E0
60
E0
C0
ENDCHAR

STARTCHAR parenleft
ENCODING 40
SWIDTH 380 0
DWIDTH 10 0
BBX 6 22 2 -3
BITMAP
04
0C
1C
3C
38
70
70
F0
E0
E0
E0
E0
E0
E0
F0
70
70
38
3C
1C
0C
04
ENDCHAR

STARTCHAR parenright
ENCODING 41
SWIDTH 380 0
DWIDTH 10 0
BBX 6 22 2 -3
BITMAP
80
C0
E0
F0
70
38
38
3C
1C
1C
1C
1C
1C
1C
3C
38
38
70
F0
E0
C0
80
ENDCHAR

STARTCHAR asterisk
ENCODING 42
SWIDTH 440 0
DWIDTH 11 0
BBX 9 8 1 11
BITMAP
6300
7700
3E00
FF80
FF80
3E00
7700
6300
ENDCHAR

STARTCHAR plus
ENCODING 43
SWIDTH 600 0
DWIDTH 17 0
BBX 15 14 1 0
BITMAP
0380
0380
0380
0380
0380
FFFE
FFFE
FFFE
0380
0380
0380
0380
0380
0380
ENDCHAR

STARTCHAR comma
ENCODING 44
SWIDTH 280 0
DWIDTH 7 0
BBX 3 6 1 -3
BITMAP
E0
E0
E0
60
E0
C0
ENDCHAR

STARTCHAR minus
ENCODING 45
SWIDTH 600 0
DWIDTH 14 0
BBX 12 3 1 6
BITMAP
FFF0
FFF0
FFF0
ENDCHAR

STARTCHAR period
ENCODING 46
SWIDTH 280 0
DWIDTH 7 0
BBX 3 3 1 0
BITMAP
E0
E0
E0
ENDCHAR

STARTCHAR slash
ENCODING 47
SWIDTH 460 0
DWIDTH 12 0
BBX 9 22 1 -3
BITMAP
0180
0380
0300
0300
0700
0600
0600
0E00
0C00
0C00
1C00
1800
1800
3800
3000
3000
7000
6000
6000
E000
C000
C000
ENDCHAR

STARTCHAR zero
ENCODING 48
SWIDTH 560 0
DWIDTH 14 0
BBX 12 19 1 0
BITMAP
1F80
7FE0
7FE0
F0F0
E070
E070
E070
E070
E070
E070
E070
E070
E070
E070
E070
F0F0
7FE0
7FE0
1F80
ENDCHAR

STARTCHAR one
ENCODING 49
SWIDTH 560 0
DWIDTH 14 0
BBX 6 19 3 0
BITMAP
FC
FC
FC
1C
1C
1C
1C
1C
1C
1C
1C
1C
1C
1C
1C
1C
1C
1C
1C
ENDCHAR

STARTCHAR two
ENCODING 50
SWIDTH 560 0
DWIDTH 14 0
BBX 12 19 1 0
BITMAP
1F80
7FE0
7FE0
F0F0
E070
E070
E070
0070
00F0
00E0
01E0
03C0
0780
0F00
1E00
3C00
7FF0
FFF0
FFF0
ENDCHAR

STARTCHAR three
ENCODING 51
SWIDTH 560 0
DWIDTH 14 0
BBX 12 19 1 0
BITMAP
1F80
7FE0
7FE0
F0F0
E070
0070
00F0
07E0
07C0
07E0
00E0
0070
0070
E070
E070
F0F0
7FE0
7FE0
1F80
ENDCHAR

STARTCHAR four
ENCODING 52
SWIDTH 560 0
DWIDTH 14 0
BBX 12 19 1 0
BITMAP
01C0
03C0
03C0
07C0
07C0
0FC0
1DC0
1DC0
39C0
39C0
71C0
71C0
E1C0
FFF0
FFF0
FFF0
01C0
01C0
01C0
ENDCHAR

STARTCHAR five
ENCODING 53
SWIDTH 560 0
DWIDTH 14 0
BBX 12 19 1 0
BITMAP
3FE0
3FE0
7FE0
7000
7000
7000
E780
FFE0
FFE0
F0F0
E070
0070
0070
E070
E070
F0F0
7FE0
7FE0
1F80
ENDCHAR

STARTCHAR six
ENCODING 54
SWIDTH 560 0
DWIDTH 14 0
BBX 12 19 1 0
BITMAP
00E0
01E0
03C0
0780
0F00
1E00
3C00
3F80
7FC0
7FE0
F0F0
E070
E070
E070
E070
F0F0
7FE0
3FC0
1F80
ENDCHAR

STARTCHAR seven
ENCODING 55
SWIDTH 560 0
DWIDTH 14 0
BBX 12 19 1 0
BITMAP
FFF0
FFF0
FFF0
00E0
01E0
01C0
01C0
0380
0380
0780
0700
0F00
0E00
0E00
1E00
1C00
3C00
3800
7800
ENDCHAR

STARTCHAR eight
ENCODING 56
SWIDTH 560 0
DWIDTH 14 0
BBX 12 19 1 0
BITMAP
0F00
3FC0
3FC0
79E0
70E0
70E0
79E0
3FC0
1F80
7FE0
70E0
E070
E070
E070
E070
70E0
7FE0
3FC0
0F00
ENDCHAR

STARTCHAR nine
ENCODING 57
SWIDTH 560 0
DWIDTH 14 0
BBX 12 19 1 0
BITMAP
1F80
7FE0
7FE0
F0F0
E070
E070
E070
E070
F0F0
7FE0
3FE0
1FC0
03C0
0780
0F00
1E00
3C00
7800
7000
ENDCHAR

STARTCHAR colon
ENCODING 58
SWIDTH 280 0
DWIDTH 7 0
BBX 3 12 1 0
BITMAP
E0
E0
E0
00
00
00
00
00
00
E0
E0
E0
ENDCHAR

STARTCHAR semicolon
ENCODING 59
SWIDTH 280 0
DWIDTH 7 0
BBX 3 15 1 -3
BITMAP
E0
E0
E0
00
00
00
00
00
00
E0
E0
E0
60
E0
C0
ENDCHAR

STARTCHAR less
ENCODING 60
SWIDTH 600 0
DWIDTH 15 0
BBX 13 15 0 1
BITMAP
0008
0038
00F8
03F8
0FE0
3F80
FE00
F800
FE00
3F80
0FE0
03F8
00F8
0038
0008
ENDCHAR

STARTCHAR equal
ENCODING 61
SWIDTH 600 0
DWIDTH 14 0
BBX 12 8 1 3
BITMAP
FFF0
FFF0
FFF0
0000
0000
FFF0
FFF0
FFF0
ENDCHAR

STARTCHAR greater
ENCODING 62
SWIDTH 600 0
DWIDTH 16 0
BBX 13 15 1 1
BITMAP
8000
E000
F800
FE00
3F80
0FE0
03F8
00F8
03F8
0FE0
3F80
FE00
F800
E000
8000
ENDCHAR

STARTCHAR question
ENCODING 63
SWIDTH 560 0
DWIDTH 14 0
BBX 11 19 1 0
BITMAP
1F00
7FC0
FFC0
F1E0
E0E0
E0E0
01C0
03C0
0780
0F00
0E00
1C00
1C00
1C00
0000
0000
1C00
1C00
1C00
ENDCHAR

STARTCHAR at
ENCODING 64
SWIDTH 740 0
DWIDTH 21 0
BBX 19 19 1 0
BITMAP
01FE00
07FF80
1E0180
3800C0
30EEC0
63FE60
639E60
C70E60
C71C60
CE1C60
CE1CC0
CE38C0
CE3980
C7FF80
C3DE00
600180
780780
1FFE00
07F800
ENDCHAR

STARTCHAR A
ENCODING 65
SWIDTH 740 0
DWIDTH 18 0
BBX 17 19 0 0
BITMAP
01C000
01C000
03E000
03E000
03E000
077000
077000
0E3800
0E3800
0E3800
1C1C00
1FFC00
3FFE00
3FFE00
780F00
700700
700700
E00380
E00380
ENDCHAR

STARTCHAR B
ENCODING 66
SWIDTH 580 0
DWIDTH 14 0
BBX 12 19 0 0
BITMAP
FF00
FFC0
FFC0
E1E0
E0E0
E0E0
E1E0
FFC0
FF80
FFE0
E1E0
E0F0
E070
E070
E0F0
E1E0
FFE0
FFC0
FF00
ENDCHAR

STARTCHAR C
ENCODING 67
SWIDTH 780 0
DWIDTH 19 0
BBX 18 19 0 0
BITMAP
03F000
0FFC00
3FFF00
3E1F00
780780
700380
F003C0
E00000
E00000
E00000
E00000
E00000
F003C0
700380
780780
3E1F00
3FFF00
0FFC00
03F000
ENDCHAR

STARTCHAR D
ENCODING 68
SWIDTH 700 0
DWIDTH 15 0
BBX 14 19 0 0
BITMAP
FF00
FFC0
FFF0
E1F0
E078
E038
E03C
E01C
E01C
E01C
E01C
E01C
E03C
E038
E078
E1F0
FFF0
FFC0
FF00
ENDCHAR

STARTCHAR E
ENCODING 69
SWIDTH 520 0
DWIDTH 12 0
BBX 9 19 1 0
BITMAP
FF80
FF80
FF80
E000
E000
E000
E000
E000
FF80
FF80
FF80
E000
E000
E000
E000
E000
FF80
FF80
FF80
ENDCHAR

STARTCHAR F
ENCODING 70
SWIDTH 480 0
DWIDTH 12 0
BBX 9 19 1 0
BITMAP
FF80
FF80
FF80
E000
E000
E000
E000
E000
FF80
FF80
FF80
E000
E000
E000
E000
E000
E000
E000
E000
ENDCHAR

STARTCHAR G
ENCODING 71
SWIDTH 840 0
DWIDTH 20 0
BBX 18 19 0 0
BITMAP
03F000
0FFC00
3FFF00
3E1F00
780780
700380
F003C0
E00000
E00000
E0FFC0
E0FFC0
E0FFC0
F003C0
700380
780780
3E1F00
3FFF00
0FFC00
03F000
ENDCHAR

STARTCHAR H
ENCODING 72
SWIDTH 680 0
DWIDTH 16 0
BBX 14 19 0 0
BITMAP
E01C
E01C
E01C
E01C
E01C
E01C
E01C
FFFC
FFFC
FFFC
E01C
E01C
E01C
E01C
E01C
E01C
E01C
E01C
E01C
ENDCHAR

STARTCHAR I
ENCODING 73
SWIDTH 280 0
DWIDTH 7 0
BBX 3 19 1 0
BITMAP
E0
E0
E0
E0
E0
E0
E0
E0
E0
E0
E0
E0
E0
E0
E0
E0
E0
E0
E0
ENDCHAR

STARTCHAR J
ENCODING 74
SWIDTH 480 0
DWIDTH 12 0
BBX 10 19 0 0
BITMAP
01C0
01C0
01C0
01C0
01C0
01C0
01C0
01C0
01C0
01C0
01C0
01C0
01C0
01C0
E1C0
F3C0
7F80
7F80
1E00
ENDCHAR

STARTCHAR K
ENCODING 75
SWIDTH 620 0
DWIDTH 14 0
BBX 13 19 0 0
BITMAP
E038
E078
E0F0
E1E0
E3C0
E780
EF00
FE00
FC00
FC00
FE00
EF00
E780
E3C0
E1E0
E0F0
E078
E038
E018
ENDCHAR

STARTCHAR L
ENCODING 76
SWIDTH 440 0
DWIDTH 12 0
BBX 9 19 1 0
BITMAP
E000
E000
E000
E000
E000
E000
E000
E000
E000
E000
E000
E000
E000
E000
E000
E000
FF80
FF80
FF80
ENDCHAR

STARTCHAR M
ENCODING 77
SWIDTH 900 0
DWIDTH 23 0
BBX 19 19 1 0
BITMAP
F001E0
F001E0
F803E0
F803E0
FC07E0
FC07E0
EE0EE0
EE0EE0
EE0EE0
E71CE0
E71CE0
E7BCE0
E3B8E0
E3B8E0
E1F0E0
E1F0E0
E1F0E0
E0E0E0
E0E0E0
ENDCHAR

STARTCHAR N
ENCODING 78
SWIDTH 740 0
DWIDTH 18 0
BBX 15 19 1 0
BITMAP
F00E
F00E
F80E
F80E
FC0E
FE0E
EE0E
EF0E
E70E
E78E
E38E
E3CE
E1CE
E0EE
E0EE
E07E
E07E
E03E
E03E
ENDCHAR

STARTCHAR O
ENCODING 79
SWIDTH 840 0
DWIDTH 20 0
BBX 18 19 0 0
BITMAP
03F000
0FFC00
3FFF00
3E1F00
780780
700380
F003C0
E001C0
E001C0
E001C0
E001C0
E001C0
F003C0
700380
780780
3E1F00
3FFF00
0FFC00
03F000
ENDCHAR

STARTCHAR P
ENCODING 80
SWIDTH 560 0
DWIDTH 15 0
BBX 12 19 1 0
BITMAP
FF80
FFE0
FFE0
E0F0
E070
E070
E070
E070
E0F0
FFE0
FFE0
FF80
E000
E000
E000
E000
E000
E000
E000
ENDCHAR

STARTCHAR Q
ENCODING 81
SWIDTH 840 0
DWIDTH 20 0
BBX 18 19 0 0
BITMAP
03F000
0FFC00
3FFF00
3E1F00
780780
700380
F003C0
E001C0
E001C0
E001C0
FF81C0
FFE1C0
FFF3C0
70FB80
783F80
3E1F00
3FFFC0
0FFFC0
03F3C0
ENDCHAR

STARTCHAR R
ENCODING 82
SWIDTH 580 0
DWIDTH 15 0
BBX 12 19 1 0
BITMAP
FF80
FFE0
FFE0
E0F0
E070
E070
E070
E070
E0F0
FFE0
FFE0
FF80
EF00
E780
E3C0
E3C0
E1E0
E0F0
E0F0
ENDCHAR

STARTCHAR S
ENCODING 83
SWIDTH 520 0
DWIDTH 13 0
BBX 12 19 0 0
BITMAP
0F00
3FC0
7FE0
70F0
E070
F000
7000
7C00
3F00
0F80
07E0
01E0
00F0
E070
E070
F9F0
7FE0
3FC0
0F00
ENDCHAR

STARTCHAR T
ENCODING 84
SWIDTH 420 0
DWIDTH 12 0
BBX 11 19 0 0
BITMAP
FFE0
FFE0
FFE0
0E00
0E00
0E00
0E00
0E00
0E00
0E00
0E00
0E00
0E00
0E00
0E00
0E00
0E00
0E00
0E00
ENDCHAR

STARTCHAR U
ENCODING 85
SWIDTH 640 0
DWIDTH 17 0
BBX 14 19 1 0
BITMAP
E01C
E01C
E01C
E01C
E01C
E01C
E01C
E01C
E01C
E01C
E01C
E01C
E01C
E01C
F03C
7878
7FF8
3FF0
0FC0
ENDCHAR

STARTCHAR V
ENCODING 86
SWIDTH 700 0
DWIDTH 17 0
BBX 16 19 0 0
BITMAP
F00F
F00F
700E
780E
781E
381C
3C1C
1C1C
1C38
1E38
0E38
0F70
0770
0770
07E0
03E0
03E0
03C0
01C0
ENDCHAR

STARTCHAR W
ENCODING 87
SWIDTH 900 0
DWIDTH 23 0
BBX 22 19 0 0
BITMAP
E0301C
E0301C
F0783C
707838
707838
707838
38FC70
38FC70
38CC70
3CCCF0
1DCEE0
1DCEE0
1DCEE0
0F87C0
0F87C0
0F87C0
0F87C0
070380
070380
ENDCHAR

STARTCHAR X
ENCODING 88
SWIDTH 680 0
DWIDTH 16 0
BBX 15 19 0 0
BITMAP
F01E
701C
783C
3838
3C78
1C70
0EE0
0FE0
07C0
07C0
07C0
0EE0
0EE0
1C70
3C78
3838
783C
701C
F01E
ENDCHAR

STARTCHAR Y
ENCODING 89
SWIDTH 620 0
DWIDTH 16 0
BBX 15 19 0 0
BITMAP
F01E
701C
783C
3838
3C78
1C70
1EF0
0EE0
0FE0
07C0
07C0
0380
0380
0380
0380
0380
0380
0380
0380
ENDCHAR

STARTCHAR Z
ENCODING 90
SWIDTH 500 0
DWIDTH 12 0
BBX 11 19 0 0
BITMAP
FFE0
FFE0
FFE0
01E0
03C0
0380
0780
0700
0F00
0E00
1E00
3C00
3C00
7800
7000
F000
FFE0
FFE0
FFE0
ENDCHAR

STARTCHAR bracketleft
ENCODING 91
SWIDTH 320 0
DWIDTH 9 0
BBX 6 22 2 -3
BITMAP
1C
7C
7C
F0
E0
E0
E0
E0
E0
E0
E0
E0
E0
E0
E0
E0
E0
E0
F0
7C
7C
1C
ENDCHAR

STARTCHAR backslash
ENCODING 92
SWIDTH 640 0
DWIDTH 16 0
BBX 12 19 2 0
BITMAP
E000
6000
7000
3000
3800
1800
1C00
0C00
0E00
0600
0700
0300
0380
0180
01C0
00C0
00E0
0060
0070
ENDCHAR

STARTCHAR bracketright
ENCODING 93
SWIDTH 320 0
DWIDTH 9 0
BBX 6 22 0 -3
BITMAP
E0
F8
F8
3C
1C
1C
1C
1C
1C
1C
1C
1C
1C
1C
1C
1C
1C
1C
3C
F8
F8
E0
ENDCHAR

STARTCHAR asciicircum
ENCODING 94
SWIDTH 600 0
DWIDTH 12 0
BBX 10 12 0 7
BITMAP
1E00
1E00
1E00
3F00
3F00
3F00
7380
7380
7380
E1C0
E1C0
E1C0
ENDCHAR

STARTCHAR underscore
ENCODING 95
SWIDTH 500 0
DWIDTH 12 0
BBX 12 2 0 -4
BITMAP
FFF0
FFF0
ENDCHAR

STARTCHAR quoteleft
ENCODING 96
SWIDTH 280 0
DWIDTH 7 0
BBX 3 6 2 13
BITMAP
60
E0
C0
E0
E0
E0
ENDCHAR

STARTCHAR a
ENCODING 97
SWIDTH 660 0
DWIDTH 16 0
BBX 14 14 0 0
BITMAP
0F9C
3FFC
7FFC
787C
F03C
E01C
E01C
E01C
E01C
F03C
787C
7FFC
3FFC
0F9C
ENDCHAR

STARTCHAR b
ENCODING 98
SWIDTH 660 0
DWIDTH 17 0
BBX 14 19 1 0
BITMAP
E000
E000
E000
E000
E000
EFC0
FFF0
FFF8
F878
F03C
E01C
E01C
E01C
E01C
F03C
F878
FFF8
FFF0
E7C0
ENDCHAR

STARTCHAR c
ENCODING 99
SWIDTH 640 0
DWIDTH 15 0
BBX 14 14 0 0
BITMAP
0FC0
3FF0
7FF8
7878
F03C
E000
E000
E000
E000
F03C
7878
7FF8
3FF0
0FC0
ENDCHAR

STARTCHAR d
ENCODING 100
SWIDTH 660 0
DWIDTH 16 0
BBX 14 19 0 0
BITMAP
001C
001C
001C
001C
001C
0F9C
3FFC
7FFC
787C
F03C
E01C
E01C
E01C
E01C
F03C
787C
7FFC
3FFC
0F9C
ENDCHAR

STARTCHAR e
ENCODING 101
SWIDTH 640 0
DWIDTH 16 0
BBX 14 14 0 0
BITMAP
0FC0
3FF0
7FF8
7878
E01C
FFFC
FFFC
FFFC
E000
F000
783C
7FF8
3FF0
0FC0
ENDCHAR

STARTCHAR f
ENCODING 102
SWIDTH 280 0
DWIDTH 7 0
BBX 7 19 -1 0
BITMAP
0E
1E
3E
38
38
FE
FE
FE
38
38
38
38
38
38
38
38
38
38
38
ENDCHAR

STARTCHAR g
ENCODING 103
SWIDTH 660 0
DWIDTH 16 0
BBX 14 18 0 -4
BITMAP
0F9C
3FFC
7FFC
787C
F03C
E01C
E01C
E01C
E01C
F03C
787C
7FFC
3FFC
0F9C
703C
7FF8
3FF8
0FE0
ENDCHAR

STARTCHAR h
ENCODING 104
SWIDTH 600 0
DWIDTH 14 0
BBX 12 19 0 0
BITMAP
E000
E000
E000
E000
E000
EF80
FFE0
FFE0
F0F0
E070
E070
E070
E070
E070
E070
E070
E070
E070
E070
ENDCHAR

STARTCHAR i
ENCODING 105
SWIDTH 240 0
DWIDTH 6 0
BBX 3 19 1 0
BITMAP
E0
E0
E0
00
00
E0
E0
E0
E0
E0
E0
E0
E0
E0
E0
E0
E0
E0
E0
ENDCHAR

STARTCHAR j
ENCODING 106
SWIDTH 260 0
DWIDTH 7 0
BBX 6 23 -1 -4
BITMAP
1C
1C
1C
00
00
1C
1C
1C
1C
1C
1C
1C
1C
1C
1C
1C
1C
1C
1C
3C
F8
F8
E0
ENDCHAR

STARTCHAR k
ENCODING 107
SWIDTH 580 0
DWIDTH 13 0
BBX 11 19 1 0
BITMAP
E000
E000
E000
E000
E000
E0E0
E1E0
E3C0
E780
EF00
FE00
FC00
FE00
EF00
E780
E3C0
E1E0
E0E0
E060
ENDCHAR

STARTCHAR l
ENCODING 108
SWIDTH 240 0
DWIDTH 6 0
BBX 3 19 1 0
BITMAP
E0
E0
E0
E0
E0
E0
E0
E0
E0
E0
E0
E0
E0
E0
E0
E0
E0
E0
E0
ENDCHAR

STARTCHAR m
ENCODING 109
SWIDTH 940 0
DWIDTH 21 0
BBX 19 14 0 0
BITMAP
E71F00
FFBFC0
FFFFC0
F1F1E0
E0E0E0
E0E0E0
E0E0E0
E0E0E0
E0E0E0
E0E0E0
E0E0E0
E0E0E0
E0E0E0
E0E0E0
ENDCHAR

STARTCHAR n
ENCODING 110
SWIDTH 600 0
DWIDTH 14 0
BBX 12 14 0 0
BITMAP
E780
FFE0
FFE0
F0F0
E070
E070
E070
E070
E070
E070
E070
E070
E070
E070
ENDCHAR

STARTCHAR o
ENCODING 111
SWIDTH 640 0
DWIDTH 16 0
BBX 14 14 0 0
BITMAP
0FC0
3FF0
7FF8
7878
F03C
E01C
E01C
E01C
E01C
F03C
7878
7FF8
3FF0
0FC0
ENDCHAR

STARTCHAR p
ENCODING 112
SWIDTH 660 0
DWIDTH 17 0
BBX 14 18 1 -4
BITMAP
E7C0
FFF0
FFF8
F878
F03C
E01C
E01C
E01C
E01C
F03C
F878
FFF8
FFF0
E7C0
E000
E000
E000
E000
ENDCHAR

STARTCHAR q
ENCODING 113
SWIDTH 660 0
DWIDTH 16 0
BBX 14 18 0 -4
BITMAP
0F9C
3FFC
7FFC
787C
F03C
E01C
E01C
E01C
E01C
F03C
787C
7FFC
3FFC
0F9C
001C
001C
001C
001C
ENDCHAR

STARTCHAR r
ENCODING 114
SWIDTH 320 0
DWIDTH 9 0
BBX 7 14 1 0
BITMAP
EE
FE
FE
F0
E0
E0
E0
E0
E0
E0
E0
E0
E0
E0
ENDCHAR

STARTCHAR s
ENCODING 115
SWIDTH 440 0
DWIDTH 12 0
BBX 10 14 0 0
BITMAP
1E00
7F80
FFC0
E1C0
E1C0
FC00
7F00
3F80
03C0
E1C0
E1C0
FFC0
7F80
1E00
ENDCHAR

STARTCHAR t
ENCODING 116
SWIDTH 300 0
DWIDTH 9 0
BBX 7 19 0 0
BITMAP
38
38
38
38
38
FE
FE
FE
38
38
38
38
38
38
38
38
38
38
38
ENDCHAR

STARTCHAR u
ENCODING 117
SWIDTH 600 0
DWIDTH 14 0
BBX 12 14 0 0
BITMAP
E070
E070
E070
E070
E070
E070
E070
E070
E070
E070
F0F0
7FF0
7FF0
1E70
ENDCHAR

STARTCHAR v
ENCODING 118
SWIDTH 560 0
DWIDTH 15 0
BBX 14 14 0 0
BITMAP
F03C
F03C
7038
7878
3870
3870
3CF0
1CE0
1CE0
0FC0
0FC0
0FC0
0780
0780
ENDCHAR

STARTCHAR w
ENCODING 119
SWIDTH 800 0
DWIDTH 19 0
BBX 18 14 0 0
BITMAP
E0C1C0
F0C3C0
71E380
71E380
79E780
39E700
3BF700
3B3700
1F3E00
1F3E00
1F3E00
0E1C00
0E1C00
0E1C00
ENDCHAR

STARTCHAR x
ENCODING 120
SWIDTH 560 0
DWIDTH 14 0
BBX 12 14 0 0
BITMAP
F0F0
F0F0
79E0
39C0
1F80
1F80
0F00
0F00
1F80
3FC0
39C0
79E0
F0F0
F0F0
ENDCHAR

STARTCHAR y
ENCODING 121
SWIDTH 580 0
DWIDTH 14 0
BBX 13 18 0 -4
BITMAP
E038
E038
F078
7070
78F0
38E0
3CE0
1DC0
1FC0
0F80
0F80
0700
0700
0700
0E00
0E00
1C00
1C00
ENDCHAR

STARTCHAR z
ENCODING 122
SWIDTH 460 0
DWIDTH 11 0
BBX 10 14 0 0
BITMAP
FFC0
FFC0
FFC0
0380
0780
0F00
0E00
1E00
3C00
3800
7800
FFC0
FFC0
FFC0
ENDCHAR

STARTCHAR braceleft
ENCODING 123
SWIDTH 340 0
DWIDTH 10 0
BBX 8 22 1 -3
BITMAP
0F
1C
38
38
38
38
38
38
30
60
C0
60
30
38
38
38
38
38
38
38
1C
0F
ENDCHAR

STARTCHAR bar
ENCODING 124
SWIDTH 600 0
DWIDTH 15 0
BBX 2 19 6 0
BITMAP
C0
C0
C0
C0
C0
C0
C0
C0
C0
C0
C0
C0
C0
C0
C0
C0
C0
C0
C0
ENDCHAR

STARTCHAR braceright
ENCODING 125
SWIDTH 340 0
DWIDTH 10 0
BBX 8 22 1 -3
BITMAP
F0
38
1C
1C
1C
1C
1C
1C
0C
06
03
06
0C
1C
1C
1C
1C
1C
1C
1C
38
F0
ENDCHAR

STARTCHAR asciitilde
ENCODING 126
SWIDTH 600 0
DWIDTH 17 0
BBX 14 4 1 6
BITMAP
3E08
7F1C
E3F8
41F0
ENDCHAR

STARTCHAR space
ENCODING 160
SWIDTH 280 0
DWIDTH 7 0
BBX 1 1 0 0
BITMAP
00
ENDCHAR

STARTCHAR exclamdown
ENCODING 161
SWIDTH 280 0
DWIDTH 7 0
BBX 3 18 1 -4
BITMAP
E0
E0
E0
00
00
E0
E0
E0
E0
E0
E0
E0
E0
E0
E0
E0
E0
E0
ENDCHAR

STARTCHAR cent
ENCODING 162
SWIDTH 560 0
DWIDTH 14 0
BBX 11 17 2 0
BITMAP
0E00
0E00
0E00
1F00
7FC0
7FC0
F1E0
E000
E000
E000
F1E0
7FC0
7FC0
1F00
0E00
0E00
0E00
ENDCHAR

STARTCHAR sterling
ENCODING 163
SWIDTH 560 0
DWIDTH 15 0
BBX 13 19 1 0
BITMAP
0F00
3FC0
3FE0
78F0
7070
7070
7000
7800
3800
FF80
FF80
FF80
0E00
0E38
1E38
3C78
FFF0
FFF0
FFC0
ENDCHAR

STARTCHAR currency
ENCODING 164
SWIDTH 600 0
DWIDTH 14 0
BBX 12 12 1 3
BITMAP
CF30
FFF0
7FE0
70E0
E070
E070
E070
E070
70E0
7FE0
FFF0
CF30
ENDCHAR

STARTCHAR yen
ENCODING 165
SWIDTH 560 0
DWIDTH 16 0
BBX 13 19 1 0
BITMAP
E038
E038
F078
7070
78F0
38E0
3DE0
FDF8
FFF8
0F80
0F80
0700
FFF8
FFF8
0700
0700
0700
0700
0700
ENDCHAR

STARTCHAR brokenbar
ENCODING 166
SWIDTH 600 0
DWIDTH 15 0
BBX 2 19 6 0
BITMAP
C0
C0
C0
C0
C0
C0
C0
C0
00
00
00
C0
C0
C0
C0
C0
C0
C0
C0
ENDCHAR

STARTCHAR section
ENCODING 167
SWIDTH 560 0
DWIDTH 14 0
BBX 11 22 1 -3
BITMAP
1F00
3FC0
7FE0
71E0
70C0
7800
3E00
7F00
FFC0
E7E0
E1E0
F0E0
FCE0
7FE0
1FC0
0F80
03C0
61C0
F1C0
FFC0
7F80
1F00
ENDCHAR

STARTCHAR dieresis
ENCODING 168
SWIDTH 500 0
DWIDTH 12 0
BBX 8 3 2 15
BITMAP
E7
E7
E7
ENDCHAR

STARTCHAR copyright
ENCODING 169
SWIDTH 740 0
DWIDTH 19 0
BBX 17 17 1 2
BITMAP
03E000
0FF800
3C1E00
300600
63E300
663300
CC3180
CC0180
CC0180
CC0180
CC3180
663300
63E300
300600
3C1E00
0FF800
03E000
ENDCHAR

STARTCHAR ordfeminine
ENCODING 170
SWIDTH 360 0
DWIDTH 9 0
BBX 8 11 0 8
BITMAP
3B
7F
E7
C3
C3
E7
7F
3B
00
FF
FF
ENDCHAR

STARTCHAR guillemotleft
ENCODING 171
SWIDTH 460 0
DWIDTH 11 0
BBX 8 7 1 4
BITMAP
21
63
E7
C6
E7
63
21
ENDCHAR

STARTCHAR logicalnot
ENCODING 172
SWIDTH 600 0
DWIDTH 15 0
BBX 13 8 1 4
BITMAP
FFF8
FFF8
FFF8
0038
0038
0038
0038
0038
ENDCHAR

STARTCHAR hyphen
ENCODING 173
SWIDTH 420 0
DWIDTH 11 0
BBX 10 3 0 6
BITMAP
FFC0
FFC0
FFC0
ENDCHAR

STARTCHAR registered
ENCODING 174
SWIDTH 740 0
DWIDTH 19 0
BBX 17 17 1 2
BITMAP
03E000
0FF800
3C1E00
300600
67E300
663300
C63180
C63180
C7E180
C6C180
C66180
663300
661B00
300600
3C1E00
0FF800
03E000
ENDCHAR

STARTCHAR macron
ENCODING 175
SWIDTH 420 0
DWIDTH 11 0
BBX 7 2 2 15
BITMAP
FE
FE
ENDCHAR

STARTCHAR degree
ENCODING 176
SWIDTH 400 0
DWIDTH 9 0
BBX 8 7 0 12
BITMAP
3C
66
C3
C3
C3
66
3C
ENDCHAR

STARTCHAR plusminus
ENCODING 177
SWIDTH 600 0
DWIDTH 17 0
BBX 15 14 1 0
BITMAP
0380
0380
0380
FFFE
FFFE
FFFE
0380
0380
0380
0000
0000
FFFE
FFFE
FFFE
ENDCHAR

STARTCHAR twosuperior
ENCODING 178
SWIDTH 336 0
DWIDTH 8 0
BBX 7 11 0 8
BITMAP
7C
FE
C6
C6
0E
1C
38
70
E0
FE
FE
ENDCHAR

STARTCHAR threesuperior
ENCODING 179
SWIDTH 336 0
DWIDTH 8 0
BBX 7 11 0 8
BITMAP
7C
FE
C6
06
1C
3C
0E
06
C6
FE
7C
ENDCHAR

STARTCHAR acute
ENCODING 180
SWIDTH 420 0
DWIDTH 11 0
BBX 5 4 3 15
BITMAP
18
78
F0
C0
ENDCHAR

STARTCHAR mu
ENCODING 181
SWIDTH 576 0
DWIDTH 14 0
BBX 12 18 0 -4
BITMAP
E070
E070
E070
E070
E070
E070
E070
E070
E070
E070
F0F0
FFF0
FFF0
EE70
E000
E000
E000
E000
ENDCHAR

STARTCHAR paragraph
ENCODING 182
SWIDTH 600 0
DWIDTH 15 0
BBX 14 22 0 -3
BITMAP
1FFC
7FFC
7FF8
FF38
FF38
FF38
FF38
7F38
7F38
1F38
0738
0738
0738
0738
0738
0738
0738
0738
0738
0738
0738
0738
ENDCHAR

STARTCHAR periodcentered
ENCODING 183
SWIDTH 280 0
DWIDTH 7 0
BBX 3 3 1 6
BITMAP
E0
E0
E0
ENDCHAR

STARTCHAR cedilla
ENCODING 184
SWIDTH 340 0
DWIDTH 9 0
BBX 5 5 2 -5
BITMAP
60
78
08
D8
70
ENDCHAR

STARTCHAR onesuperior
ENCODING 185
SWIDTH 336 0
DWIDTH 8 0
BBX 4 11 1 8
BITMAP
F0
F0
30
30
30
30
30
30
30
30
30
ENDCHAR

STARTCHAR ordmasculine
ENCODING 186
SWIDTH 360 0
DWIDTH 9 0
BBX 8 11 0 8
BITMAP
3C
7E
E7
C3
C3
E7
7E
3C
00
FF
FF
ENDCHAR

STARTCHAR guillemotright
ENCODING 187
SWIDTH 460 0
DWIDTH 11 0
BBX 8 7 1 4
BITMAP
84
C6
E7
63
E7
C6
84
ENDCHAR

STARTCHAR onequarter
ENCODING 188
SWIDTH 840 0
DWIDTH 21 0
BBX 17 19 1 0
BITMAP
F03000
F03000
306000
306000
30E000
30C000
30C000
318000
318300
338700
330F00
031F00
061B00
063300
0E6300
0C7F80
0C7F80
180300
180300
ENDCHAR

STARTCHAR onehalf
ENCODING 189
SWIDTH 840 0
DWIDTH 21 0
BBX 17 19 1 0
BITMAP
F03000
F03000
306000
306000
30E000
30C000
30C000
318000
319F00
33BF80
333180
033180
060380
060700
0E0E00
0C1C00
0C3800
183F80
183F80
ENDCHAR

STARTCHAR threequarters
ENCODING 190
SWIDTH 840 0
DWIDTH 21 0
BBX 19 19 0 0
BITMAP
7C0C00
FE0C00
C61800
061800
1C3800
3C3000
0E3000
066000
C660C0
FEE1C0
7CC3C0
00C7C0
0186C0
018CC0
0398C0
031FE0
031FE0
0600C0
0600C0
ENDCHAR

STARTCHAR questiondown
ENCODING 191
SWIDTH 560 0
DWIDTH 14 0
BBX 11 18 1 -4
BITMAP
0700
0700
0700
0000
0700
0700
0700
0E00
1E00
3C00
7800
7000
E0E0
E0E0
F1E0
7FC0
7FC0
1F00
ENDCHAR

STARTCHAR Agrave
ENCODING 192
SWIDTH 740 0
DWIDTH 18 0
BBX 17 24 0 0
BITMAP
030000
03C000
01E000
006000
000000
01C000
01C000
03E000
03E000
03E000
077000
077000
0E3800
0E3800
0E3800
1C1C00
1FFC00
3FFE00
3FFE00
780F00
700700
700700
E00380
E00380
ENDCHAR

STARTCHAR Aacute
ENCODING 193
SWIDTH 740 0
DWIDTH 18 0
BBX 17 24 0 0
BITMAP
006000
01E000
03C000
030000
000000
01C000
01C000
03E000
03E000
03E000
077000
077000
0E3800
0E3800
0E3800
1C1C00
1FFC00
3FFE00
3FFE00
780F00
700700
700700
E00380
E00380
ENDCHAR

STARTCHAR Acircumflex
ENCODING 194
SWIDTH 740 0
DWIDTH 18 0
BBX 17 23 0 0
BITMAP
01E000
03F000
073800
000000
01C000
01C000
03E000
03E000
03E000
077000
077000
0E3800
0E3800
0E3800
1C1C00
1FFC00
3FFE00
3FFE00
780F00
700700
700700
E00380
E00380
ENDCHAR

STARTCHAR Atilde
ENCODING 195
SWIDTH 740 0
DWIDTH 18 0
BBX 17 23 0 0
BITMAP
039800
07F800
067000
000000
01C000
01C000
03E000
03E000
03E000
077000
077000
0E3800
0E3800
0E3800
1C1C00
1FFC00
3FFE00
3FFE00
780F00
700700
700700
E00380
E00380
ENDCHAR

STARTCHAR Adieresis
ENCODING 196
SWIDTH 740 0
DWIDTH 18 0
BBX 17 24 0 0
BITMAP
073800
073800
073800
000000
000000
01C000
01C000
03E000
03E000
03E000
077000
077000
0E3800
0E3800
0E3800
1C1C00
1FFC00
3FFE00
3FFE00
780F00
700700
700700
E00380
E00380
ENDCHAR

STARTCHAR Aring
ENCODING 197
SWIDTH 740 0
DWIDTH 18 0
BBX 17 24 0 0
BITMAP
01C000
036000
036000
01C000
000000
01C000
01C000
03E000
03E000
03E000
077000
077000
0E3800
0E3800
0E3800
1C1C00
1FFC00
3FFE00
3FFE00
780F00
700700
700700
E00380
E00380
ENDCHAR

STARTCHAR AE
ENCODING 198
SWIDTH 900 0
DWIDTH 22 0
BBX 21 19 0 0
BITMAP
001FF8
003FF8
003FF8
007E00
00FE00
00EE00
01EE00
01CE00
03CFF8
038FF8
070FF8
0FFE00
0FFE00
1FFE00
1C0E00
3C0E00
780FF8
780FF8
F00FF8
ENDCHAR

STARTCHAR Ccedilla
ENCODING 199
SWIDTH 780 0
DWIDTH 19 0
BBX 18 24 0 -5
BITMAP
03F000
0FFC00
3FFF00
3E1F00
780780
700380
F003C0
E00000
E00000
E00000
E00000
E00000
F003C0
700380
780780
3E1F00
3FFF00
0FFC00
03F000
018000
01C000
006000
036000
01C000
ENDCHAR

STARTCHAR Egrave
ENCODING 200
SWIDTH 520 0
DWIDTH 12 0
BBX 9 24 1 0
BITMAP
3000
3C00
1E00
0600
0000
FF80
FF80
FF80
E000
E000
E000
E000
E000
FF80
FF80
FF80
E000
E000
E000
E000
E000
FF80
FF80
FF80
ENDCHAR

STARTCHAR Eacute
ENCODING 201
SWIDTH 520 0
DWIDTH 12 0
BBX 9 24 1 0
BITMAP
0600
1E00
3C00
3000
0000
FF80
FF80
FF80
E000
E000
E000
E000
E000
FF80
FF80
FF80
E000
E000
E000
E000
E000
FF80
FF80
FF80
ENDCHAR

STARTCHAR Ecircumflex
ENCODING 202
SWIDTH 520 0
DWIDTH 12 0
BBX 9 23 1 0
BITMAP
1E00
3F00
7380
0000
FF80
FF80
FF80
E000
E000
E000
E000
E000
FF80
FF80
FF80
E000
E000
E000
E000
E000
FF80
FF80
FF80
ENDCHAR

STARTCHAR Edieresis
ENCODING 203
SWIDTH 520 0
DWIDTH 12 0
BBX 9 24 1 0
BITMAP
7380
7380
7380
0000
0000
FF80
FF80
FF80
E000
E000
E000
E000
E000
FF80
FF80
FF80
E000
E000
E000
E000
E000
FF80
FF80
FF80
ENDCHAR

STARTCHAR Igrave
ENCODING 204
SWIDTH 280 0
DWIDTH 7 0
BBX 5 24 -1 0
BITMAP
C0
F0
78
18
00
38
38
38
38
38
38
38
38
38
38
38
38
38
38
38
38
38
38
38
ENDCHAR

STARTCHAR Iacute
ENCODING 205
SWIDTH 280 0
DWIDTH 7 0
BBX 5 24 1 0
BITMAP
18
78
F0
C0
00
E0
E0
E0
E0
E0
E0
E0
E0
E0
E0
E0
E0
E0
E0
E0
E0
E0
E0
E0
ENDCHAR

STARTCHAR Icircumflex
ENCODING 206
SWIDTH 280 0
DWIDTH 7 0
BBX 8 23 -1 0
BITMAP
3C
7E
E7
00
38
38
38
38
38
38
38
38
38
38
38
38
38
38
38
38
38
38
38
ENDCHAR

STARTCHAR Idieresis
ENCODING 207
SWIDTH 280 0
DWIDTH 7 0
BBX 7 24 -1 0
BITMAP
EE
EE
EE
00
00
38
38
38
38
38
38
38
38
38
38
38
38
38
38
38
38
38
38
38
ENDCHAR

STARTCHAR Eth
ENCODING 208
SWIDTH 742 0
DWIDTH 15 0
BBX 16 19 -2 0
BITMAP
3FC0
3FF0
3FFC
387C
381E
380E
380F
3807
FF07
FF07
3807
3807
380F
380E
381E
387C
3FFC
3FF0
3FC0
ENDCHAR

STARTCHAR Ntilde
ENCODING 209
SWIDTH 740 0
DWIDTH 18 0
BBX 15 23 1 0
BITMAP
0730
0FF0
0CE0
0000
F00E
F00E
F80E
F80E
FC0E
FE0E
EE0E
EF0E
E70E
E78E
E38E
E3CE
E1CE
E0EE
E0EE
E07E
E07E
E03E
E03E
ENDCHAR

STARTCHAR Ograve
ENCODING 210
SWIDTH 840 0
DWIDTH 20 0
BBX 18 24 0 0
BITMAP
018000
01E000
00F000
003000
000000
03F000
0FFC00
3FFF00
3E1F00
780780
700380
F003C0
E001C0
E001C0
E001C0
E001C0
E001C0
F003C0
700380
780780
3E1F00
3FFF00
0FFC00
03F000
ENDCHAR

STARTCHAR Oacute
ENCODING 211
SWIDTH 840 0
DWIDTH 20 0
BBX 18 24 0 0
BITMAP
003000
00F000
01E000
018000
000000
03F000
0FFC00
3FFF00
3E1F00
780780
700380
F003C0
E001C0
E001C0
E001C0
E001C0
E001C0
F003C0
700380
780780
3E1F00
3FFF00
0FFC00
03F000
ENDCHAR

STARTCHAR Ocircumflex
ENCODING 212
SWIDTH 840 0
DWIDTH 20 0
BBX 18 23 0 0
BITMAP
01E000
03F000
073800
000000
03F000
0FFC00
3FFF00
3E1F00
780780
700380
F003C0
E001C0
E001C0
E001C0
E001C0
E001C0
F003C0
700380
780780
3E1F00
3FFF00
0FFC00
03F000
ENDCHAR

STARTCHAR Otilde
ENCODING 213
SWIDTH 840 0
DWIDTH 20 0
BBX 18 23 0 0
BITMAP
039800
07F800
067000
000000
03F000
0FFC00
3FFF00
3E1F00
780780
700380
F003C0
E001C0
E001C0
E001C0
E001C0
E001C0
F003C0
700380
780780
3E1F00
3FFF00
0FFC00
03F000
ENDCHAR

STARTCHAR Odieresis
ENCODING 214
SWIDTH 840 0
DWIDTH 20 0
BBX 18 24 0 0
BITMAP
073800
073800
073800
000000
000000
03F000
0FFC00
3FFF00
3E1F00
780780
700380
F003C0
E001C0
E001C0
E001C0
E001C0
E001C0
F003C0
700380
780780
3E1F00
3FFF00
0FFC00
03F000
ENDCHAR

STARTCHAR multiply
ENCODING 215
SWIDTH 600 0
DWIDTH 17 0
BBX 15 14 0 0
BITMAP
600C
F01E
783C
3C78
1EF0
0FE0
07C0
07C0
0FE0
1EF0
3C78
783C
F01E
600C
ENDCHAR

STARTCHAR Oslash
ENCODING 216
SWIDTH 840 0
DWIDTH 20 0
BBX 18 19 1 0
BITMAP
03F380
0FFF80
3FFF00
3E1F00
783F80
703B80
F07BC0
E0F1C0
E0F1C0
E1E1C0
E3C1C0
E3C1C0
F783C0
7F0380
7F0780
3E1F00
3FFF00
7FFC00
73F000
ENDCHAR

STARTCHAR Ugrave
ENCODING 217
SWIDTH 640 0
DWIDTH 17 0
BBX 14 24 1 0
BITMAP
0C00
0F00
0780
0180
0000
E01C
E01C
E01C
E01C
E01C
E01C
E01C
E01C
E01C
E01C
E01C
E01C
E01C
E01C
F03C
7878
7FF8
3FF0
0FC0
ENDCHAR

STARTCHAR Uacute
ENCODING 218
SWIDTH 640 0
DWIDTH 17 0
BBX 14 24 1 0
BITMAP
00C0
03C0
0780
0600
0000
E01C
E01C
E01C
E01C
E01C
E01C
E01C
E01C
E01C
E01C
E01C
E01C
E01C
E01C
F03C
7878
7FF8
3FF0
0FC0
ENDCHAR

STARTCHAR Ucircumflex
ENCODING 219
SWIDTH 640 0
DWIDTH 17 0
BBX 14 23 1 0
BITMAP
0780
0FC0
1CE0
0000
E01C
E01C
E01C
E01C
E01C
E01C
E01C
E01C
E01C
E01C
E01C
E01C
E01C
E01C
F03C
7878
7FF8
3FF0
0FC0
ENDCHAR

STARTCHAR Udieresis
ENCODING 220
SWIDTH 640 0
DWIDTH 17 0
BBX 14 24 1 0
BITMAP
1CE0
1CE0
1CE0
0000
0000
E01C
E01C
E01C
E01C
E01C
E01C
E01C
E01C
E01C
E01C
E01C
E01C
E01C
E01C
F03C
7878
7FF8
3FF0
0FC0
ENDCHAR

STARTCHAR Yacute
ENCODING 221
SWIDTH 620 0
DWIDTH 16 0
BBX 15 24 0 0
BITMAP
0060
01E0
03C0
0300
0000
F01E
701C
783C
3838
3C78
1C70
1EF0
0EE0
0FE0
07C0
07C0
0380
0380
0380
0380
0380
0380
0380
0380
ENDCHAR

STARTCHAR Thorn
ENCODING 222
SWIDTH 560 0
DWIDTH 15 0
BBX 12 19 1 0
BITMAP
E000
E000
E000
FF80
FFE0
FFE0
E0F0
E070
E070
E070
E070
E0F0
FFE0
FFE0
FF80
E000
E000
E000
E000
ENDCHAR

STARTCHAR germandbls
ENCODING 223
SWIDTH 600 0
DWIDTH 15 0
BBX 13 19 1 0
BITMAP
1F00
7FC0
7FC0
F1E0
F0E0
E0E0
E1E0
E7C0
E780
E7E0
E1F0
E070
E038
E038
F838
FC78
FFF0
EFF0
E7C0
ENDCHAR

STARTCHAR agrave
ENCODING 224
SWIDTH 660 0
DWIDTH 16 0
BBX 14 19 0 0
BITMAP
0C00
0F00
0780
0180
0000
0F9C
3FFC
7FFC
787C
F03C
E01C
E01C
E01C
E01C
F03C
787C
7FFC
3FFC
0F9C
ENDCHAR

STARTCHAR aacute
ENCODING 225
SWIDTH 660 0
DWIDTH 16 0
BBX 14 19 0 0
BITMAP
00C0
03C0
0780
0600
0000
0F9C
3FFC
7FFC
787C
F03C
E01C
E01C
E01C
E01C
F03C
787C
7FFC
3FFC
0F9C
ENDCHAR

STARTCHAR acircumflex
ENCODING 226
SWIDTH 660 0
DWIDTH 16 0
BBX 14 18 0 0
BITMAP
0780
0FC0
1CE0
0000
0F9C
3FFC
7FFC
787C
F03C
E01C
E01C
E01C
E01C
F03C
787C
7FFC
3FFC
0F9C
ENDCHAR

STARTCHAR atilde
ENCODING 227
SWIDTH 660 0
DWIDTH 16 0
BBX 14 18 0 0
BITMAP
0E60
1FE0
19C0
0000
0F9C
3FFC
7FFC
787C
F03C
E01C
E01C
E01C
E01C
F03C
787C
7FFC
3FFC
0F9C
ENDCHAR

STARTCHAR adieresis
ENCODING 228
SWIDTH 660 0
DWIDTH 16 0
BBX 14 19 0 0
BITMAP
1CE0
1CE0
1CE0
0000
0000
0F9C
3FFC
7FFC
787C
F03C
E01C
E01C
E01C
E01C
F03C
787C
7FFC
3FFC
0F9C
ENDCHAR

STARTCHAR aring
ENCODING 229
SWIDTH 660 0
DWIDTH 16 0
BBX 14 19 0 0
BITMAP
0700
0D80
0D80
0700
0000
0F9C
3FFC
7FFC
787C
F03C
E01C
E01C
E01C
E01C
F03C
787C
7FFC
3FFC
0F9C
ENDCHAR

STARTCHAR ae
ENCODING 230
SWIDTH 1080 0
DWIDTH 26 0
BBX 25 14 0 0
BITMAP
0F9DF800
3FFFFE00
7FFFFF00
787F0F00
F03C0380
E01FFF80
E01FFF80
E01FFF80
E01C0000
F03E0000
787F0780
7FFFFF00
3FFFFE00
0F9DF800
ENDCHAR

STARTCHAR ccedilla
ENCODING 231
SWIDTH 640 0
DWIDTH 15 0
BBX 14 19 0 -5
BITMAP
0FC0
3FF0
7FF8
7878
F03C
E000
E000
E000
E000
F03C
7878
7FF8
3FF0
0FC0
0600
0780
0080
0D80
0700
ENDCHAR

STARTCHAR egrave
ENCODING 232
SWIDTH 640 0
DWIDTH 16 0
BBX 14 19 0 0
BITMAP
0C00
0F00
0780
0180
0000
0FC0
3FF0
7FF8
7878
E01C
FFFC
FFFC
FFFC
E000
F000
783C
7FF8
3FF0
0FC0
ENDCHAR

STARTCHAR eacute
ENCODING 233
SWIDTH 640 0
DWIDTH 16 0
BBX 14 19 0 0
BITMAP
00C0
03C0
0780
0600
0000
0FC0
3FF0
7FF8
7878
E01C
FFFC
FFFC
FFFC
E000
F000
783C
7FF8
3FF0
0FC0
ENDCHAR

STARTCHAR ecircumflex
ENCODING 234
SWIDTH 640 0
DWIDTH 16 0
BBX 14 18 0 0
BITMAP
0780
0FC0
1CE0
0000
0FC0
3FF0
7FF8
7878
E01C
FFFC
FFFC
FFFC
E000
F000
783C
7FF8
3FF0
0FC0
ENDCHAR

STARTCHAR edieresis
ENCODING 235
SWIDTH 640 0
DWIDTH 16 0
BBX 14 19 0 0
BITMAP
1CE0
1CE0
1CE0
0000
0000
0FC0
3FF0
7FF8
7878
E01C
FFFC
FFFC
FFFC
E000
F000
783C
7FF8
3FF0
0FC0
ENDCHAR

STARTCHAR igrave
ENCODING 236
SWIDTH 240 0
DWIDTH 6 0
BBX 5 19 0 0
BITMAP
C0
F0
78
18
00
70
70
70
70
70
70
70
70
70
70
70
70
70
70
ENDCHAR

STARTCHAR iacute
ENCODING 237
SWIDTH 240 0
DWIDTH 6 0
BBX 5 19 1 0
BITMAP
18
78
F0
C0
00
E0
E0
E0
E0
E0
E0
E0
E0
E0
E0
E0
E0
E0
E0
ENDCHAR

STARTCHAR icircumflex
ENCODING 238
SWIDTH 240 0
DWIDTH 6 0
BBX 8 18 -1 0
BITMAP
3C
7E
E7
00
38
38
38
38
38
38
38
38
38
38
38
38
38
38
ENDCHAR

STARTCHAR idieresis
ENCODING 239
SWIDTH 240 0
DWIDTH 6 0
BBX 8 19 -1 0
BITMAP
E7
E7
E7
00
00
38
38
38
38
38
38
38
38
38
38
38
38
38
38
ENDCHAR

STARTCHAR eth
ENCODING 240
SWIDTH 640 0
DWIDTH 16 0
BBX 14 19 0 0
BITMAP
F1C0
3F00
1E00
3380
01C0
0FE0
3FF0
7FF8
7878
F03C
E01C
E01C
E01C
E01C
F03C
7878
7FF8
3FF0
0FC0
ENDCHAR

STARTCHAR ntilde
ENCODING 241
SWIDTH 600 0
DWIDTH 14 0
BBX 12 18 0 0
BITMAP
1CC0
3FC0
3380
0000
E780
FFE0
FFE0
F0F0
E070
E070
E070
E070
E070
E070
E070
E070
E070
E070
ENDCHAR

STARTCHAR ograve
ENCODING 242
SWIDTH 640 0
DWIDTH 16 0
BBX 14 19 0 0
BITMAP
0C00
0F00
0780
0180
0000
0FC0
3FF0
7FF8
7878
F03C
E01C
E01C
E01C
E01C
F03C
7878
7FF8
3FF0
0FC0
ENDCHAR

STARTCHAR oacute
ENCODING 243
SWIDTH 640 0
DWIDTH 16 0
BBX 14 19 0 0
BITMAP
00C0
03C0
0780
0600
0000
0FC0
3FF0
7FF8
7878
F03C
E01C
E01C
E01C
E01C
F03C
7878
7FF8
3FF0
0FC0
ENDCHAR

STARTCHAR ocircumflex
ENCODING 244
SWIDTH 640 0
DWIDTH 16 0
BBX 14 18 0 0
BITMAP
0780
0FC0
1CE0
0000
0FC0
3FF0
7FF8
7878
F03C
E01C
E01C
E01C
E01C
F03C
7878
7FF8
3FF0
0FC0
ENDCHAR

STARTCHAR otilde
ENCODING 245
SWIDTH 640 0
DWIDTH 16 0
BBX 14 18 0 0
BITMAP
0E60
1FE0
19C0
0000
0FC0
3FF0
7FF8
7878
F03C
E01C
E01C
E01C
E01C
F03C
7878
7FF8
3FF0
0FC0
ENDCHAR

STARTCHAR odieresis
ENCODING 246
SWIDTH 640 0
DWIDTH 16 0
BBX 14 19 0 0
BITMAP
1CE0
1CE0
1CE0
0000
0000
0FC0
3FF0
7FF8
7878
F03C
E01C
E01C
E01C
E01C
F03C
7878
7FF8
3FF0
0FC0
ENDCHAR

STARTCHAR divide
ENCODING 247
SWIDTH 600 0
DWIDTH 17 0
BBX 15 13 1 1
BITMAP
0380
0380
0380
0000
0000
FFFE
FFFE
FFFE
0000
0000
0380
0380
0380
ENDCHAR

STARTCHAR oslash
ENCODING 248
SWIDTH 660 0
DWIDTH 17 0
BBX 14 16 1 -1
BITMAP
0018
0FBC
3FF8
7FF0
78F8
F1FC
E3DC
E39C
E71C
EF1C
FE3C
7C78
3FF8
7FF0
F7C0
6000
ENDCHAR

STARTCHAR ugrave
ENCODING 249
SWIDTH 600 0
DWIDTH 14 0
BBX 12 19 0 0
BITMAP
1800
1E00
0F00
0300
0000
E070
E070
E070
E070
E070
E070
E070
E070
E070
E070
F0F0
7FF0
7FF0
1E70
ENDCHAR

STARTCHAR uacute
ENCODING 250
SWIDTH 600 0
DWIDTH 14 0
BBX 12 19 0 0
BITMAP
0180
0780
0F00
0C00
0000
E070
E070
E070
E070
E070
E070
E070
E070
E070
E070
F0F0
7FF0
7FF0
1E70
ENDCHAR

STARTCHAR ucircumflex
ENCODING 251
SWIDTH 600 0
DWIDTH 14 0
BBX 12 18 0 0
BITMAP
0F00
1F80
39C0
0000
E070
E070
E070
E070
E070
E070
E070
E070
E070
E070
F0F0
7FF0
7FF0
1E70
ENDCHAR

STARTCHAR udieresis
ENCODING 252
SWIDTH 600 0
DWIDTH 14 0
BBX 12 19 0 0
BITMAP
39C0
39C0
39C0
0000
0000
E070
E070
E070
E070
E070
E070
E070
E070
E070
E070
F0F0
7FF0
7FF0
1E70
ENDCHAR

STARTCHAR yacute
ENCODING 253
SWIDTH 580 0
DWIDTH 14 0
BBX 13 23 0 -4
BITMAP
00C0
03C0
0780
0600
0000
E038
E038
F078
7070
78F0
38E0
3CE0
1DC0
1FC0
0F80
0F80
0700
0700
0700
0E00
0E00
1C00
1C00
ENDCHAR

STARTCHAR thorn
ENCODING 254
SWIDTH 660 0
DWIDTH 17 0
BBX 14 23 1 -4
BITMAP
E000
E000
E000
E000
E000
E7C0
FFF0
FFF8
F878
F03C
E01C
E01C
E01C
E01C
F03C
F878
FFF8
FFF0
E7C0
E000
E000
E000
E000
ENDCHAR

STARTCHAR ydieresis
ENCODING 255
SWIDTH 580 0
DWIDTH 14 0
BBX 13 23 0 -4
BITMAP
39C0
39C0
39C0
0000
0000
E038
E038
F078
7070
78F0
38E0
3CE0
1DC0
1FC0
0F80
0F80
0700
0700
0700
0E00
0E00
1C00
1C00
ENDCHAR
ENDFONT
